<?xml version="1.0" encoding="iso-8859-1"?>
<!-- Uploaded to: SVG Repo, www.svgrepo.com, Generator: SVG Repo Mixer Tools -->
<svg height="800px" width="800px" version="1.1" id="Layer_1" xmlns="http://www.w3.org/2000/svg" xmlns:xlink="http://www.w3.org/1999/xlink" 
	 viewBox="0 0 511.989 511.989" xml:space="preserve">
<path style="fill:#E6E9ED;" d="M511.988,255.994c0,141.388-114.607,255.994-255.994,255.994
	c-141.388,0-255.994-114.605-255.994-255.994C0.001,114.623,114.607,0,255.995,0C397.382,0,511.988,114.623,511.988,255.994z"/>
<g>
	<path style="fill:#CCD1D9;" d="M255.995,10.672c5.812,0,10.531-4.656,10.656-10.438C263.12,0.078,259.557,0,255.995,0
		s-7.125,0.078-10.656,0.234C245.464,6.016,250.183,10.672,255.995,10.672z"/>
	<path style="fill:#CCD1D9;" d="M255.995,501.332c-5.812,0-10.531,4.656-10.656,10.438c3.531,0.156,7.094,0.219,10.656,0.219
		s7.125-0.062,10.656-0.219C266.526,505.988,261.807,501.332,255.995,501.332z"/>
	<path style="fill:#CCD1D9;" d="M208.137,15.391c5.703-1.141,9.422-6.625,8.406-12.328c-3.484,0.547-6.984,1.172-10.484,1.859
		c-3.5,0.703-6.969,1.469-10.406,2.297C196.887,12.875,202.433,16.532,208.137,15.391z"/>
	<path style="fill:#CCD1D9;" d="M303.852,496.613c-5.702,1.141-9.421,6.625-8.405,12.328c3.484-0.547,6.984-1.172,10.483-1.859
		c3.5-0.703,6.969-1.469,10.406-2.297C315.102,499.129,309.556,495.488,303.852,496.613z"/>
	<path style="fill:#CCD1D9;" d="M162.105,29.344c5.375-2.219,7.953-8.328,5.859-13.718c-3.328,1.219-6.641,2.5-9.938,3.875
		c-3.297,1.359-6.547,2.797-9.766,4.281C150.59,29.078,156.73,31.578,162.105,29.344z"/>
	<path style="fill:#CCD1D9;" d="M349.884,482.662c-5.375,2.217-7.953,8.326-5.859,13.717c3.328-1.219,6.641-2.5,9.938-3.875
		c3.297-1.359,6.547-2.797,9.765-4.281C361.398,482.928,355.259,480.428,349.884,482.662z"/>
	<path style="fill:#CCD1D9;" d="M119.701,52.015c4.828-3.234,6.172-9.719,3.047-14.594c-3.016,1.844-6.016,3.75-8.969,5.734
		c-2.969,1.984-5.891,4.016-8.75,6.094C108.357,53.999,114.857,55.249,119.701,52.015z"/>
	<path style="fill:#CCD1D9;" d="M392.288,459.99c-4.828,3.219-6.172,9.719-3.047,14.594c3.016-1.844,6.016-3.75,8.969-5.734
		c2.969-1.984,5.891-4.016,8.75-6.094C403.632,458.006,397.132,456.756,392.288,459.99z"/>
	<path style="fill:#CCD1D9;" d="M82.53,82.53c4.109-4.109,4.156-10.75,0.141-14.921c-2.594,2.391-5.172,4.859-7.688,7.375
		c-2.531,2.531-4.984,5.094-7.375,7.703C71.78,86.686,78.405,86.639,82.53,82.53z"/>
	<path style="fill:#CCD1D9;" d="M429.475,429.474c-4.125,4.109-4.172,10.75-0.156,14.922c2.609-2.406,5.172-4.859,7.688-7.375
		c2.531-2.531,4.984-5.094,7.39-7.703C440.21,425.318,433.585,425.365,429.475,429.474z"/>
	<path style="fill:#CCD1D9;" d="M52.016,119.701c3.234-4.828,1.984-11.343-2.766-14.656c-2.078,2.859-4.125,5.766-6.109,8.734
		s-3.891,5.968-5.734,8.984C42.281,125.872,48.781,124.544,52.016,119.701z"/>
	<path style="fill:#CCD1D9;" d="M459.974,392.305c-3.234,4.828-1.984,11.342,2.766,14.654c2.093-2.859,4.124-5.764,6.108-8.732
		s3.891-5.969,5.734-8.984C469.708,386.133,463.208,387.461,459.974,392.305z"/>
	<path style="fill:#CCD1D9;" d="M29.344,162.121c2.219-5.375-0.266-11.515-5.578-13.843c-1.484,3.203-2.906,6.469-4.28,9.765
		c-1.359,3.297-2.656,6.609-3.875,9.922C21,170.075,27.109,167.496,29.344,162.121z"/>
	<path style="fill:#CCD1D9;" d="M482.645,349.883c-2.219,5.375,0.266,11.516,5.578,13.844c1.484-3.203,2.906-6.469,4.281-9.766
		c1.359-3.297,2.656-6.609,3.875-9.922C490.988,341.93,484.88,344.508,482.645,349.883z"/>
	<path style="fill:#CCD1D9;" d="M15.376,208.136c1.141-5.703-2.5-11.234-8.156-12.484c-0.828,3.438-1.609,6.906-2.297,10.406
		c-0.703,3.5-1.312,7-1.859,10.5C8.751,217.558,14.251,213.839,15.376,208.136z"/>
	<path style="fill:#CCD1D9;" d="M496.613,303.869c-1.141,5.703,2.5,11.234,8.156,12.484c0.828-3.438,1.609-6.906,2.297-10.406
		c0.703-3.5,1.312-7,1.859-10.5C503.238,294.432,497.738,298.166,496.613,303.869z"/>
	<path style="fill:#CCD1D9;" d="M10.673,255.994c0-5.812-4.656-10.531-10.453-10.656c-0.141,3.547-0.219,7.094-0.219,10.656
		c0,3.578,0.078,7.125,0.219,10.656C6.016,266.541,10.673,261.822,10.673,255.994z"/>
	<path style="fill:#CCD1D9;" d="M501.316,255.994c0,5.828,4.656,10.546,10.453,10.656c0.141-3.531,0.219-7.078,0.219-10.656
		c0-3.562-0.078-7.109-0.219-10.656C505.988,245.463,501.316,250.182,501.316,255.994z"/>
	<path style="fill:#CCD1D9;" d="M15.376,303.869c-1.125-5.703-6.625-9.438-12.312-8.422c0.547,3.5,1.156,7,1.859,10.5
		c0.688,3.5,1.469,6.969,2.297,10.406C12.876,315.103,16.516,309.572,15.376,303.869z"/>
	<path style="fill:#CCD1D9;" d="M496.613,208.136c1.125,5.703,6.625,9.438,12.312,8.422c-0.547-3.5-1.156-7-1.859-10.5
		c-0.688-3.5-1.469-6.969-2.297-10.406C499.13,196.902,495.474,202.433,496.613,208.136z"/>
	<path style="fill:#CCD1D9;" d="M29.344,349.883c-2.234-5.375-8.344-7.953-13.733-5.844c1.219,3.312,2.516,6.625,3.875,9.922
		c1.374,3.297,2.796,6.562,4.28,9.766C29.078,361.398,31.562,355.258,29.344,349.883z"/>
	<path style="fill:#CCD1D9;" d="M482.645,162.121c2.234,5.375,8.344,7.953,13.734,5.844c-1.219-3.312-2.516-6.625-3.875-9.922
		c-1.375-3.312-2.797-6.562-4.281-9.765C482.927,150.606,480.427,156.746,482.645,162.121z"/>
	<path style="fill:#CCD1D9;" d="M52.016,392.305c-3.234-4.844-9.734-6.188-14.609-3.062c1.844,3.016,3.75,6.016,5.734,8.984
		s4.031,5.873,6.109,8.732C54,403.646,55.25,397.133,52.016,392.305z"/>
	<path style="fill:#CCD1D9;" d="M459.974,119.701c3.234,4.844,9.733,6.172,14.608,3.062c-1.844-3.016-3.75-6.016-5.734-8.984
		c-1.984-2.969-4.031-5.875-6.108-8.734C457.99,108.357,456.74,114.873,459.974,119.701z"/>
	<path style="fill:#CCD1D9;" d="M82.53,429.474c-4.125-4.109-10.75-4.156-14.922-0.156c2.391,2.609,4.844,5.172,7.375,7.703
		c2.516,2.516,5.094,4.969,7.688,7.375C86.686,440.224,86.64,433.584,82.53,429.474z"/>
	<path style="fill:#CCD1D9;" d="M429.475,82.53c4.109,4.109,10.734,4.156,14.905,0.141c-2.39-2.594-4.843-5.156-7.374-7.688
		c-2.516-2.515-5.094-4.984-7.688-7.375C425.319,71.78,425.35,78.42,429.475,82.53z"/>
	<path style="fill:#CCD1D9;" d="M119.701,459.99c-4.844-3.234-11.359-1.984-14.672,2.766c2.859,2.078,5.781,4.109,8.75,6.094
		s5.953,3.891,8.969,5.734C125.873,469.709,124.529,463.209,119.701,459.99z"/>
	<path style="fill:#CCD1D9;" d="M392.288,52.015c4.844,3.234,11.359,1.984,14.672-2.766c-2.859-2.078-5.781-4.109-8.75-6.094
		s-5.953-3.906-8.969-5.75C386.116,42.296,387.46,48.796,392.288,52.015z"/>
	<path style="fill:#CCD1D9;" d="M162.105,482.662c-5.375-2.234-11.516,0.266-13.828,5.561c3.203,1.484,6.453,2.922,9.75,4.281
		c3.297,1.375,6.609,2.656,9.938,3.875C170.059,490.988,167.48,484.879,162.105,482.662z"/>
	<path style="fill:#CCD1D9;" d="M349.884,29.344c5.359,2.234,11.516-0.266,13.843-5.562c-3.218-1.484-6.468-2.922-9.765-4.281
		c-3.297-1.375-6.609-2.656-9.938-3.875C341.931,21.016,344.509,27.125,349.884,29.344z"/>
	<path style="fill:#CCD1D9;" d="M208.137,496.613c-5.703-1.141-11.25,2.516-12.484,8.172c3.438,0.828,6.906,1.594,10.406,2.297
		c3.5,0.688,7,1.312,10.484,1.859C217.558,503.238,213.84,497.754,208.137,496.613z"/>
	<path style="fill:#CCD1D9;" d="M303.852,15.391c5.703,1.125,11.25-2.516,12.484-8.172c-3.438-0.828-6.906-1.594-10.406-2.297
		c-3.499-0.688-6.999-1.312-10.483-1.859C294.432,8.766,298.15,14.25,303.852,15.391z"/>
	<path style="fill:#CCD1D9;" d="M447.99,255.994c0,106.044-85.966,191.996-191.995,191.996S63.999,362.039,63.999,255.994
		c0-106.029,85.967-191.995,191.996-191.995S447.99,149.966,447.99,255.994z"/>
</g>
<g style="opacity:0.1;">
	<path d="M255.995,63.999c-3.578,0-7.141,0.109-10.672,0.312c101.076,5.532,181.34,89.233,181.34,191.683
		c0,102.466-80.264,186.167-181.34,191.699c3.531,0.203,7.094,0.297,10.672,0.297c106.029,0,191.995-85.951,191.995-191.996
		C447.99,149.966,362.023,63.999,255.995,63.999z"/>
</g>
<g>
	<path style="fill:#8CC153;" d="M405.319,288.01c0,5.891-4.766,10.656-10.656,10.656s-10.672-4.766-10.672-10.672
		c0-5.891,4.781-10.656,10.672-10.656S405.319,282.119,405.319,288.01z"/>
	<path style="fill:#8CC153;" d="M362.665,309.338c0,5.891-4.781,10.67-10.672,10.67s-10.672-4.779-10.672-10.67
		s4.781-10.672,10.672-10.672S362.665,303.447,362.665,309.338z"/>
	<path style="fill:#8CC153;" d="M256.87,117.341c0,5.891-4.766,10.672-10.656,10.672s-10.672-4.781-10.672-10.672
		c0-5.89,4.781-10.671,10.672-10.671S256.87,111.451,256.87,117.341z"/>
	<path style="fill:#8CC153;" d="M191.996,117.341c0,5.891-4.781,10.672-10.671,10.656c-5.891,0-10.656-4.766-10.656-10.656
		s4.766-10.671,10.656-10.671C187.215,106.67,191.996,111.451,191.996,117.341z"/>
	<path style="fill:#8CC153;" d="M213.324,159.996c0,5.906-4.766,10.672-10.656,10.672s-10.672-4.766-10.672-10.656
		s4.781-10.671,10.672-10.671S213.324,154.122,213.324,159.996z"/>
	<path style="fill:#8CC153;" d="M127.998,287.994c0,5.906-4.781,10.672-10.672,10.672s-10.656-4.781-10.656-10.672
		s4.766-10.656,10.656-10.656S127.998,282.103,127.998,287.994z"/>
	<path style="fill:#8CC153;" d="M394.663,341.336c0,5.891-4.781,10.656-10.672,10.672c-5.89,0-10.671-4.781-10.671-10.672
		s4.781-10.672,10.671-10.672C389.882,330.664,394.663,335.445,394.663,341.336z"/>
	<path style="fill:#8CC153;" d="M234.667,373.336c0,5.891-4.781,10.656-10.672,10.672c-5.89,0-10.671-4.781-10.671-10.672
		s4.781-10.672,10.671-10.672C229.886,362.664,234.667,367.445,234.667,373.336z"/>
</g>
<polygon style="fill:#434A54;" points="164.138,299.9 124.654,342.086 162.372,349.633 169.903,387.351 209.387,345.148 "/>
<path style="fill:#8CC153;" d="M255.995,416.006c0,5.891-4.781,10.656-10.672,10.656s-10.656-4.781-10.656-10.672
	s4.766-10.656,10.656-10.656S255.995,410.115,255.995,416.006z"/>
<path style="fill:#FFCE54;" d="M391.757,180.575c-15.077-15.078-22.296-7.203-37.717-22.625
	c-15.422-15.421-7.531-22.624-22.625-37.702c-15.078-15.093-60.342,0-75.42,15.078c-15.078,15.078-91.857,164.575-91.857,164.575
	l45.249,45.248c0,0,148.903-70.764,165.637-87.498C391.757,240.916,406.835,195.667,391.757,180.575z"/>
<path style="fill:#F6BB42;" d="M331.415,225.839L331.415,225.839L331.415,225.839l-15.078-15.094l15.078-15.078l0,0
	c4.172-4.171,4.172-10.921,0-15.093c-4.156-4.156-10.922-4.156-15.078,0c0,0,0,0,0,0.016l-15.093,15.077l-15.078-15.093l0,0
	c-4.171-4.156-10.921-4.156-15.093,0c-4.156,4.172-4.156,10.921,0,15.093c0.016,0,0.016,0,0.016,0l15.077,15.078l-22.624,22.625
	l-7.531-7.515c0-0.016-0.016-0.016-0.016-0.016c-4.172-4.172-10.922-4.172-15.078,0c-4.172,4.156-4.172,10.921,0,15.077l0,0l0,0
	l7.531,7.547l-22.609,22.609c0,0.016-0.016,0.016-0.016,0.016c-4.155,4.156-4.155,10.922,0,15.078
	c4.172,4.172,10.922,4.172,15.094,0l0,0l22.625-22.625l7.547,7.547l0,0c4.156,4.156,10.906,4.156,15.077,0
	c4.156-4.172,4.172-10.922,0-15.093l0,0l0,0l-7.546-7.531l22.624-22.624l15.062,15.046c0.016,0.016,0.016,0.016,0.031,0.031
	c4.156,4.172,10.922,4.172,15.078,0C335.587,236.76,335.587,229.995,331.415,225.839z"/>
<g>
	<path style="fill:#ED5564;" d="M309.32,415.99c-11.39,0-22.108-4.438-30.154-12.484c-8.062-8.061-12.5-18.779-12.5-30.17
		c0-11.406,4.438-22.109,12.484-30.172c8.062-8.062,18.78-12.5,30.17-12.5c11.406,0,22.109,4.438,30.172,12.5
		s12.5,18.766,12.5,30.172c0,11.391-4.438,22.109-12.5,30.17C331.431,411.553,320.727,415.99,309.32,415.99z"/>
	<path style="fill:#ED5564;" d="M138.67,245.338c-11.406,0-22.109-4.438-30.172-12.5c-8.062-8.062-12.499-18.765-12.499-30.171
		c0-11.39,4.438-22.108,12.499-30.171c8.062-8.047,18.766-12.5,30.172-12.5c11.39,0,22.108,4.453,30.171,12.5
		c8.047,8.062,12.484,18.781,12.484,30.171c0,11.406-4.438,22.109-12.484,30.171C160.778,240.901,150.059,245.338,138.67,245.338z"
		/>
</g>
<g>
	<path style="fill:#DA4453;" d="M347.04,335.617c-10.422-10.406-24.062-15.625-37.719-15.625
		c-13.64,0.016-27.295,5.219-37.701,15.625c-20.828,20.828-20.828,54.594,0,75.42c10.406,10.422,24.062,15.625,37.701,15.625
		c13.656,0,27.297-5.203,37.719-15.625C367.867,390.211,367.867,356.445,347.04,335.617z M341.32,373.336
		c0,4.859-1.078,9.547-3.109,13.797l-13.797-13.797l13.797-13.812C340.242,363.789,341.32,368.476,341.32,373.336z M309.32,341.336
		h0.016l0,0c4.844,0,9.531,1.078,13.797,3.109l-13.812,13.797l-13.796-13.797C299.775,342.414,304.477,341.336,309.32,341.336z
		 M280.448,387.133c-2.047-4.25-3.125-8.938-3.125-13.797s1.078-9.547,3.125-13.797l13.796,13.797L280.448,387.133z
		 M295.525,402.211l13.796-13.797l13.812,13.812c-4.266,2.029-8.953,3.107-13.812,3.107
		C304.477,405.334,299.775,404.256,295.525,402.211z"/>
	<path style="fill:#DA4453;" d="M138.67,149.341c-13.656,0-27.297,5.203-37.719,15.625c-20.827,20.828-20.827,54.593,0,75.42
		c10.422,10.405,24.063,15.608,37.719,15.608c13.64,0,27.296-5.203,37.702-15.609c20.827-20.827,20.827-54.592,0-75.42
		C165.965,154.544,152.309,149.341,138.67,149.341z M153.747,202.667l13.797-13.796c2.047,4.25,3.125,8.937,3.125,13.796
		s-1.078,9.547-3.125,13.797L153.747,202.667z M138.67,170.668L138.67,170.668L138.67,170.668c4.858,0,9.546,1.078,13.796,3.109
		l-13.796,13.812l-13.812-13.812C129.123,171.746,133.81,170.668,138.67,170.668z M109.779,216.464
		c-2.031-4.25-3.109-8.938-3.109-13.797s1.078-9.546,3.109-13.796l13.797,13.796L109.779,216.464z M124.857,231.557l13.812-13.796
		l13.796,13.796c-4.25,2.031-8.953,3.109-13.796,3.109C133.81,234.667,129.123,233.589,124.857,231.557z"/>
</g>
</svg>